<?xml version="1.0" encoding="utf-8"?>
<!-- Generator: Adobe Illustrator 21.0.2, SVG Export Plug-In . SVG Version: 6.00 Build 0)  -->
<svg version="1.1" id="Livello_1" xmlns="http://www.w3.org/2000/svg" xmlns:xlink="http://www.w3.org/1999/xlink" x="0px" y="0px"
	 viewBox="0 0 77.5 100" style="enable-background:new 0 0 77.5 100;" xml:space="preserve">
<style type="text/css">
	.st0{fill:#FEFEFD;}
	.st1{fill:#FEC108;}
	.st2{fill:#606060;}
	.st3{fill:#4C4F53;}
	.st4{fill:#273239;}
	.st5{fill:#FEEE72;}
	.st6{fill:#FEC109;}
</style>
<g>
	<path class="st0" d="M45.8,93.6c2.2-1.3,4.8-2,5.9-4.6c1.3-1.5,1.8-3.2,1.5-5.1c0-1.6,0-3.1,0-4.7c0-1.7,0.1-3.3,0.1-5
		c7.3-5,12.9-11.4,17.1-19.1c3.1-5.6,5-11.7,4.7-18.2C74.4,14.4,54.6-1.7,32.4,2.2C10.1,6-3.2,29.7,5.4,50.6
		c4,9.8,10.5,17.5,19.2,23.5c0,1.3,0,2.7,0,4c0,1.5,0,3.1,0,4.6c0,1.6-0.3,3.3,0.9,4.6c0.8,2.6,2.4,4.4,5.2,4.8
		c0.1,0.7,0.5,1.3,1.3,1.4c0.7,0.7,1.3,1.5,2.1,2.2c1.2,1.2,2.2,2.4,4.4,2.6C42.3,98.7,43.7,95.7,45.8,93.6z"/>
	<path class="st1" d="M24.5,74.2c-8.6-6-15.2-13.8-19.2-23.5C-3.2,29.7,10.1,6,32.4,2.2c22.2-3.8,42,12.2,42.8,34.7
		c0.2,6.5-1.6,12.5-4.7,18.2c-4.2,7.7-9.9,14.2-17.1,19.1c-0.2,0-0.4,0-0.6,0c-2.2-0.1-4.4-0.1-6.5-0.2c0-7.9,0-15.7-0.1-23.6
		c0-1.4,0.4-2.5,1.3-3.5c2.1-2.6,4.2-5.2,6.3-7.8c3.2-4,2.9-4-1.1-7.3c-4.3-3.5-8.1-4.2-12.3-0.2c-0.9,0.8-1.7,1-2.7,0
		c-4-4-8-3.7-11.9,0.2c-0.2,0.2-0.6,0.4-0.9,0.6c-3.1,2.1-3.3,3.4-0.9,6.4c2.3,2.8,4.5,5.6,6.8,8.3c0.7,0.8,1,1.7,1,2.8
		c0,8,0,16.1-0.1,24.1C29.4,74.1,27,74.1,24.5,74.2z"/>
	<path class="st2" d="M52.7,74.2c0.2,0,0.4,0,0.6,0c0,1.7-0.1,3.3-0.1,5c-3.6,0-7.1,0.9-10.6,1.3c-6.1,0.7-12,2-18.1,2.3
		c0-1.5,0-3.1,0-4.6c3.7-0.5,7.4-1,11.1-1.6C41.4,75.8,47.1,75,52.7,74.2z"/>
	<path class="st3" d="M24.5,82.8c6.1-0.3,12.1-1.6,18.1-2.3c3.5-0.4,7-1.3,10.6-1.3c0,1.6,0,3.1,0,4.7c-3.2,0.4-6.4,0.8-9.6,1.2
		c-6.1,0.8-12.1,2-18.2,2.3C24.3,86.1,24.6,84.4,24.5,82.8z"/>
	<path class="st2" d="M25.5,87.4c6.1-0.4,12.2-1.6,18.2-2.3c3.2-0.4,6.4-0.8,9.6-1.2c0.2,1.9-0.2,3.7-1.5,5.1
		c-4.6,0.6-9.2,1.1-13.8,1.8c-2.4,0.4-5,0.1-7.3,1.4C27.8,91.8,26.3,90,25.5,87.4z"/>
	<path class="st3" d="M52.7,74.2c-5.7,0.8-11.4,1.6-17.1,2.4c-3.7,0.5-7.4,1-11.1,1.6c0-1.3,0-2.7,0-4c2.4,0,4.8-0.1,7.2-0.1
		c1.7,0,3.4,0,5.1,0c1.5,0,3,0,4.5,0c1.6,0,3.2,0,4.8,0C48.4,74.1,50.6,74.1,52.7,74.2z"/>
	<path class="st3" d="M30.7,92.2c2.3-1.3,4.9-1,7.3-1.4c4.6-0.7,9.2-1.2,13.8-1.8c-1.2,2.6-3.8,3.3-5.9,4.6c-4.6,0-9.2,0-13.9,0
		C31.2,93.5,30.8,93,30.7,92.2z"/>
	<path class="st4" d="M32,93.6c4.6,0,9.2,0,13.9,0c-2.1,2.1-3.5,5.1-7.4,4.8c-2.1-0.2-3.1-1.4-4.4-2.6C33.3,95.1,32.7,94.3,32,93.6z
		"/>
	<path class="st5" d="M36.9,74c-1.7,0-3.4,0-5.1,0c0-8,0-16.1,0.1-24.1c0-1.1-0.3-1.9-1-2.8c-2.3-2.7-4.5-5.6-6.8-8.3
		c-2.4-3-2.3-4.3,0.9-6.4c0.3-0.2,0.6-0.3,0.9-0.6c3.9-3.9,7.9-4.3,11.9-0.2c0.9,0.9,1.8,0.8,2.7,0c4.2-3.9,8-3.2,12.3,0.2
		c4,3.3,4.3,3.3,1.1,7.3c-2.1,2.6-4.2,5.2-6.3,7.8c-0.9,1-1.3,2.1-1.3,3.5c0.1,7.9,0,15.7,0.1,23.6c-1.6,0-3.2,0-4.8,0
		c0-6.4,0.4-12.8-0.1-19.2C41,49,42.1,44.2,46.4,40.3c0.6-0.6,1.1-1.3,1.7-1.9c1.6-1.6,1.5-2.7-0.6-3.8c-1.1-0.6-1.9-0.5-2.8,0.1
		c-1.2,0.8-2.5,1.6-3.6,2.4c-1.3,1-2.6,1-4,0.1c-1.4-1-2.8-1.9-4.3-2.8c-1.7-1.1-2.7,0.5-3.8,1.3c-1.2,0.9,0.1,1.6,0.6,2.3
		c1.8,2.3,3.5,4.6,5.4,6.8c1.3,1.5,1.7,3,1.7,4.9C36.8,57.8,36.9,65.9,36.9,74z"/>
	<path class="st6" d="M36.9,74c0-8.1-0.1-16.2,0-24.4c0-1.9-0.4-3.5-1.7-4.9c-1.9-2.2-3.7-4.5-5.4-6.8c-0.5-0.7-1.8-1.3-0.6-2.3
		c1-0.8,2-2.4,3.8-1.3c1.4,0.9,2.9,1.9,4.3,2.8c1.4,0.9,2.6,1,4-0.1c1.1-0.9,2.4-1.6,3.6-2.4c0.9-0.6,1.7-0.7,2.8-0.1
		c2.1,1.1,2.2,2.2,0.6,3.8c-0.6,0.6-1.1,1.3-1.7,1.9c-4.3,3.9-5.4,8.8-5.1,14.5c0.4,6.4,0.1,12.8,0.1,19.2C39.9,74,38.4,74,36.9,74z
		"/>
</g>
</svg>
